# This file uses centimeters as units for non-parametric coordinates.

mtllib bush white.mtl
g default
v -1.628555 1.115562 -6.425426
v -6.324871 1.115562 1.708809
v 1.682225 1.115562 6.356363
v 6.378536 1.115562 -1.777874
v 0.026835 3.668850 -0.034531
v -0.108654 -0.252288 0.145512
v 2.518837 2.989491 -0.558521
v -2.795494 1.256029 0.865449
v 0.224739 4.982375 0.056179
v 5.872147 3.287277 -5.487885
v -2.971354 3.354713 -6.347195
v -3.754093 2.595139 3.332054
v 5.089413 2.527706 4.191359
v 1.059029 4.678711 -0.908443
v 1.558351 1.313194 4.512494
v 4.666676 2.344557 0.920681
v 0.996871 0.696548 -1.790145
v 7.940254 0.528488 4.005723
v 7.378777 -0.088158 -2.296907
vt 0.578095 0.503003
vt 0.727512 0.503018
vt 0.727512 0.655748
vt 0.578095 0.655733
vt 0.652803 0.579376
vt 0.342709 0.757973
vt 0.494486 0.757973
vt 0.320022 0.869169
vt 0.494486 0.869169
vt 0.578095 0.503003
vt 0.727512 0.503018
vt 0.727512 0.655748
vt 0.578095 0.655733
vt 0.652803 0.579376
vt 0.578095 0.503003
vt 0.652803 0.579376
vt 0.578095 0.655733
vt 0.727512 0.503018
vt 0.727512 0.655748
vn -0.092303 0.932673 -0.348713
vn 0.000000 1.000000 0.000000
vn 0.349061 0.932393 -0.093806
vn -0.092303 0.932673 -0.348713
vn -0.349061 0.932393 0.093806
vn 0.000000 1.000000 0.000000
vn -0.349061 0.932393 0.093806
vn 0.092303 0.932673 0.348713
vn 0.000000 1.000000 0.000000
vn 0.000000 1.000000 0.000000
vn 0.092303 0.932673 0.348713
vn 0.349061 0.932393 -0.093806
vn 0.258819 0.000000 0.965926
vn 0.258819 0.000000 0.965926
vn 0.258819 0.000000 0.965926
vn 0.258819 0.000000 0.965926
vn 0.195134 0.976489 -0.091608
vn 0.000020 0.996798 0.079962
vn 0.161410 0.948519 0.272505
vn 0.195134 0.976489 -0.091608
vn -0.159925 0.979807 -0.120010
vn 0.000020 0.996798 0.079962
vn -0.159925 0.979807 -0.120010
vn -0.196683 0.949768 0.243427
vn 0.000020 0.996798 0.079962
vn 0.000020 0.996798 0.079962
vn -0.196683 0.949768 0.243427
vn 0.161410 0.948519 0.272505
vn -0.124724 0.977060 0.172621
vn 0.112990 0.987849 -0.106716
vn -0.170860 0.927481 -0.332546
vn -0.124724 0.977060 0.172621
vn 0.381562 0.914646 0.133543
vn 0.112990 0.987849 -0.106716
vn 0.381562 0.914646 0.133543
vn 0.335489 0.865620 -0.371684
vn 0.112990 0.987849 -0.106716
vn 0.112990 0.987849 -0.106716
vn 0.335489 0.865620 -0.371684
vn -0.170860 0.927481 -0.332546
s off
g bush
usemtl lambert3SG
f 1/1/1 5/5/2 4/4/3
f 1/1/4 2/2/5 5/5/6
f 2/2/7 3/3/8 5/5/9
f 5/5/10 3/3/11 4/4/12
f 8/8/13 6/6/14 7/7/15 9/9/16
f 10/10/17 14/14/18 13/13/19
f 10/10/20 11/11/21 14/14/22
f 11/11/23 12/12/24 14/14/25
f 14/14/26 12/12/27 13/13/28
f 15/15/29 16/16/30 17/17/31
f 15/15/32 18/18/33 16/16/34
f 18/18/35 19/19/36 16/16/37
f 16/16/38 19/19/39 17/17/40
