# This file uses centimeters as units for non-parametric coordinates.

mtllib coffin.mtl
g default
v -172.783050 4.865400 8.761224
v -166.508349 4.865400 8.761224
v -172.731793 4.865400 -12.190929
v -166.560031 4.865400 -12.190929
v -165.051062 4.865400 -6.634401
v -174.240763 4.865400 -6.634401
v -166.508348 4.277823 8.761225
v -172.783050 4.277823 8.761225
v -166.560031 4.277823 -12.190930
v -172.731793 4.277823 -12.190930
v -165.051062 4.277823 -6.634402
v -174.240763 4.277823 -6.634402
vt 0.416546 0.029403
vt 0.854246 0.029403
vt 0.420151 0.969577
vt 0.850670 0.969577
vt 0.314891 0.720242
vt 0.955931 0.720242
vt 0.854285 0.029400
vt 0.850681 0.969573
vt 0.955941 0.720238
vt 0.895090 0.026915
vt 0.416585 0.029400
vt 0.420161 0.969573
vt 0.314901 0.720238
vt 0.380606 0.976483
vt 0.890235 0.976483
vt 0.995495 0.727148
vt 0.375781 0.026914
vt 0.274096 0.717753
vt 0.854285 0.003033
vt 0.416585 0.003034
vt 0.996746 0.717754
vt 0.850681 0.995939
vt 0.420161 0.995939
vt 0.275346 0.727148
vn 0.000000 1.000000 0.000000
vn 0.000000 1.000000 0.000000
vn 0.000000 1.000000 0.000000
vn 0.000000 1.000000 0.000000
vn 0.000000 1.000000 0.000000
vn 0.000000 1.000000 0.000000
vn 0.000000 1.000000 0.000000
vn 0.000000 1.000000 0.000000
vn 0.000000 0.000001 1.000000
vn 0.000000 0.000001 1.000000
vn 0.000000 0.000001 1.000000
vn 0.000000 0.000001 1.000000
vn 0.996356 0.000000 -0.085295
vn 0.996356 0.000000 -0.085295
vn 0.995550 0.000001 0.094235
vn 0.995550 0.000001 0.094235
vn 0.000000 0.000001 -1.000000
vn 0.000000 0.000001 -1.000000
vn 0.000000 0.000001 -1.000000
vn 0.000000 0.000001 -1.000000
vn -0.996357 0.000000 -0.085281
vn -0.996357 0.000000 -0.085281
vn -0.965048 0.000000 -0.262075
vn -0.965048 0.000000 -0.262075
vn 0.965048 0.000000 -0.262075
vn 0.965048 0.000000 -0.262075
vn 0.996356 0.000000 -0.085295
vn 0.996356 0.000000 -0.085295
vn -0.995547 0.000000 0.094262
vn -0.995547 0.000000 0.094262
vn -0.996357 0.000000 -0.085281
vn -0.996357 0.000000 -0.085281
vn 0.000000 -1.000000 -0.000000
vn 0.000000 -1.000000 -0.000000
vn 0.000000 -1.000000 -0.000000
vn 0.000000 -1.000000 -0.000000
vn 0.000000 -1.000000 -0.000000
vn 0.000000 -1.000000 -0.000000
vn 0.000000 -1.000000 -0.000000
vn 0.000000 -1.000000 -0.000000
s off
g coffin_top
usemtl lambert16SG
f 1/11/1 2/7/2 5/9/3 6/13/4
f 5/9/5 4/8/6 3/12/7 6/13/8
f 7/19/9 2/7/10 1/11/11 8/20/12
f 11/21/13 5/9/14 2/7/15 7/10/16
f 10/23/17 3/12/18 4/8/19 9/22/20
f 12/24/21 6/13/22 3/12/23 10/14/24
f 9/15/25 4/8/26 5/9/27 11/16/28
f 8/17/29 1/11/30 6/13/31 12/18/32
f 8/2/33 12/6/34 11/5/35 7/1/36
f 12/6/37 10/4/38 9/3/39 11/5/40
g default
v -172.638625 0.587577 8.729063
v -166.697358 0.587577 8.729062
v -172.611178 0.587577 -11.909051
v -166.724146 0.587577 -11.909051
v -173.841493 0.587577 -6.512404
v -165.490327 0.587577 -6.512404
v -166.968997 0.587577 8.456075
v -172.367030 0.587577 8.456075
v -166.963293 0.587577 -11.638997
v -172.372061 0.587577 -11.638997
v -165.746209 0.587577 -6.546421
v -173.585544 0.587577 -6.546421
v -166.697357 4.047689 8.729064
v -166.724145 4.047689 -11.909055
v -172.611179 4.047689 -11.909055
v -165.490326 4.047689 -6.512405
v -173.841494 4.047689 -6.512405
v -172.638626 4.047689 8.729065
v -166.968997 4.047690 8.456073
v -166.963293 4.047690 -11.638997
v -172.372061 4.047690 -11.638997
v -165.746209 4.047689 -6.546421
v -173.585544 4.047689 -6.546421
v -172.367030 4.047690 8.456073
v -172.803047 0.587577 8.883219
v -166.528346 0.587577 8.883219
v -165.071059 0.587577 -6.512407
v -174.260760 0.587577 -6.512407
v -166.580029 0.587577 -12.068935
v -172.751791 0.587577 -12.068935
v -166.528346 -0.000000 8.883219
v -172.803048 -0.000000 8.883219
v -165.071059 0.000000 -6.512408
v -172.751791 0.000000 -12.068936
v -166.580029 0.000000 -12.068936
v -174.260760 0.000000 -6.512408
vt 0.267556 0.777604
vt 0.267556 0.003786
vt 0.026193 0.003786
vt 0.267556 0.777604
vt 0.267556 0.995877
vt 0.267556 0.570707
vt 0.267533 0.003786
vt 0.267556 0.003786
vt 0.026168 0.995877
vt 0.026193 0.777604
vt 0.267533 0.570707
vt 0.026168 0.003786
vt 0.267533 0.777604
vt 0.267533 0.003786
vt 0.267533 0.777604
vt 0.267556 0.570707
vt 0.026168 0.777604
vt 0.267533 0.995877
vt 0.026168 0.777604
vt 0.267533 0.570707
vt 0.026193 0.995877
vt 0.026193 0.570707
vt 0.026168 0.570707
vt 0.026193 0.570707
vt 0.006995 0.995877
vt 0.026168 0.570707
vt 0.026168 0.003786
vt 0.267556 0.777604
vt 0.026168 0.777604
vt 0.026193 0.003786
vt 0.006995 0.003786
vt 0.006995 0.777604
vt 0.267533 0.777604
vt 0.006995 0.777604
vt 0.026193 0.777604
vt 0.006995 0.777604
vt 0.006995 0.570707
vt 0.006995 0.570707
vt 0.267556 0.995877
vt 0.026193 0.995877
vt 0.267533 0.995877
vt 0.006995 0.003786
vt 0.026168 0.995877
vt 0.006995 0.995877
vt 0.416546 0.029403
vt 0.854246 0.029403
vt 0.420151 0.969577
vt 0.850670 0.969577
vt 0.314891 0.720242
vt 0.955931 0.720242
vt 0.854285 0.029400
vt 0.850681 0.969573
vt 0.955941 0.720238
vt 0.895090 0.026915
vt 0.416585 0.029400
vt 0.420161 0.969573
vt 0.026193 0.777604
vt 0.314901 0.720238
vt 0.380606 0.976483
vt 0.890235 0.976483
vt 0.995495 0.727148
vt 0.375781 0.026914
vt 0.274096 0.717753
vt 0.854285 0.003033
vt 0.416585 0.003034
vt 0.996746 0.717754
vt 0.850681 0.995939
vt 0.420161 0.995939
vt 0.275346 0.727148
vt 0.416585 0.029400
vt 0.854285 0.029400
vt 0.955941 0.720238
vt 0.314901 0.720238
vt 0.850681 0.969573
vt 0.420161 0.969573
vt 0.854285 0.003033
vt 0.416585 0.003034
vt 0.996746 0.717754
vt 0.895090 0.026915
vt 0.420161 0.995939
vt 0.850681 0.995939
vt 0.275346 0.727148
vt 0.380606 0.976483
vt 0.890235 0.976483
vt 0.995495 0.727148
vt 0.375781 0.026914
vt 0.274096 0.717753
vt 0.854246 0.029403
vt 0.955931 0.720242
vt 0.314891 0.720242
vt 0.416546 0.029403
vt 0.850670 0.969577
vt 0.420151 0.969577
vn 0.000000 -0.000001 1.000000
vn 0.000000 -0.000001 1.000000
vn 0.000000 -0.000001 1.000000
vn 0.000000 -0.000001 1.000000
vn 0.997346 -0.000000 -0.072803
vn 0.997346 -0.000000 -0.072803
vn 0.996879 -0.000000 0.078947
vn 0.996879 -0.000000 0.078947
vn 0.000000 -0.000001 -1.000000
vn 0.000000 -0.000001 -1.000000
vn 0.000000 -0.000001 -1.000000
vn 0.000000 -0.000001 -1.000000
vn -0.997359 -0.000000 -0.072631
vn -0.997359 -0.000000 -0.072631
vn -0.974984 -0.000000 -0.222274
vn -0.974984 -0.000000 -0.222274
vn 0.974847 -0.000000 -0.222876
vn 0.974847 -0.000000 -0.222876
vn 0.997346 -0.000000 -0.072803
vn 0.997346 -0.000000 -0.072803
vn -0.996900 -0.000000 0.078676
vn -0.996900 -0.000000 0.078676
vn -0.997359 -0.000000 -0.072631
vn -0.997359 -0.000000 -0.072631
vn 0.000000 1.000000 0.000001
vn 0.000000 1.000000 0.000001
vn -0.000000 1.000000 0.000001
vn -0.000000 1.000000 0.000001
vn 0.000000 1.000000 0.000001
vn 0.000000 1.000000 0.000001
vn 0.000001 1.000000 -0.000000
vn 0.000001 1.000000 -0.000000
vn -0.000000 1.000000 -0.000001
vn -0.000000 1.000000 -0.000001
vn 0.000000 1.000000 -0.000001
vn 0.000000 1.000000 -0.000001
vn -0.000001 1.000000 -0.000000
vn -0.000001 1.000000 -0.000000
vn -0.000000 1.000000 -0.000001
vn -0.000000 1.000000 -0.000001
vn 0.000000 1.000000 -0.000001
vn 0.000000 1.000000 -0.000001
vn 0.000001 1.000000 -0.000000
vn 0.000001 1.000000 -0.000000
vn -0.000001 1.000000 -0.000000
vn -0.000001 1.000000 -0.000000
vn -0.000000 1.000000 0.000001
vn -0.000000 1.000000 0.000001
vn 0.000000 -0.000000 -1.000000
vn 0.000000 -0.000000 -1.000000
vn 0.000000 -0.000000 -1.000000
vn 0.000000 -0.000000 -1.000000
vn -0.996695 -0.000000 -0.081236
vn -0.996695 -0.000000 -0.081236
vn -0.997065 -0.000000 0.076558
vn -0.997065 -0.000000 0.076558
vn 0.000000 -0.000000 1.000000
vn 0.000000 -0.000000 1.000000
vn 0.000000 -0.000000 1.000000
vn 0.000000 -0.000000 1.000000
vn 0.997080 -0.000000 0.076365
vn 0.997080 -0.000000 0.076365
vn 0.972765 -0.000000 0.231795
vn 0.972765 -0.000000 0.231795
vn -0.972609 -0.000000 0.232446
vn -0.972609 -0.000000 0.232446
vn -0.997065 -0.000000 0.076558
vn -0.997065 -0.000000 0.076558
vn 0.997080 -0.000000 0.076365
vn 0.997080 -0.000000 0.076365
vn 0.996718 -0.000000 -0.080954
vn 0.996718 -0.000000 -0.080954
vn 0.000000 1.000000 0.000000
vn 0.000000 1.000000 0.000000
vn 0.000000 1.000000 0.000000
vn 0.000000 1.000000 0.000000
vn 0.000000 1.000000 0.000000
vn 0.000000 1.000000 0.000000
vn 0.000000 1.000000 0.000000
vn 0.000000 1.000000 0.000000
vn 0.000000 0.000001 1.000000
vn 0.000000 0.000001 1.000000
vn 0.000000 0.000001 1.000000
vn 0.000000 0.000001 1.000000
vn 0.996356 0.000000 -0.085295
vn 0.996356 0.000000 -0.085295
vn 0.995550 0.000001 0.094235
vn 0.995550 0.000001 0.094235
vn 0.000000 0.000001 -1.000000
vn 0.000000 0.000001 -1.000000
vn 0.000000 0.000001 -1.000000
vn 0.000000 0.000001 -1.000000
vn -0.996357 0.000000 -0.085281
vn -0.996357 0.000000 -0.085281
vn -0.965048 0.000000 -0.262075
vn -0.965048 0.000000 -0.262075
vn 0.965048 0.000000 -0.262075
vn 0.965048 0.000000 -0.262075
vn 0.996356 0.000000 -0.085295
vn 0.996356 0.000000 -0.085295
vn -0.995547 0.000000 0.094262
vn -0.995547 0.000000 0.094262
vn -0.996357 0.000000 -0.085281
vn -0.996357 0.000000 -0.085281
vn 0.000000 -1.000000 -0.000000
vn 0.000000 -1.000000 -0.000000
vn 0.000000 -1.000000 -0.000000
vn 0.000000 -1.000000 -0.000000
vn 0.000000 -1.000000 -0.000000
vn 0.000000 -1.000000 -0.000000
vn 0.000000 -1.000000 -0.000000
vn 0.000000 -1.000000 -0.000000
s off
g coffin
usemtl lambert19SG
f 13/25/41 14/63/42 25/64/43 30/81/44
f 18/30/45 28/48/46 25/27/47 14/26/48
f 16/28/49 15/29/50 27/45/51 26/34/52
f 17/40/53 29/46/54 27/59/55 15/52/56
f 16/28/57 26/34/58 28/48/59 18/30/60
f 13/32/61 30/54/62 29/46/63 17/40/64
f 25/64/65 31/68/66 36/56/67 30/81/68
f 31/55/69 25/27/70 28/48/71 34/61/72
f 27/45/73 33/49/74 32/58/75 26/34/76
f 29/46/77 35/62/78 33/60/79 27/59/80
f 26/34/81 32/58/82 34/61/83 28/48/84
f 35/62/85 29/46/86 30/54/87 36/66/88
f 31/67/89 19/65/90 20/37/91 36/41/92
f 19/31/93 31/36/94 34/47/95 23/35/96
f 33/33/97 22/42/98 21/39/99 32/43/100
f 35/50/101 24/44/102 22/57/103 33/53/104
f 32/43/105 21/39/106 23/35/107 34/47/108
f 24/44/109 35/50/110 36/51/111 20/38/112
f 37/94/113 38/95/114 39/96/115 40/97/116
f 39/96/117 41/98/118 42/99/119 40/97/120
f 43/100/121 38/95/122 37/94/123 44/101/124
f 45/102/125 39/96/126 38/95/127 43/103/128
f 46/104/129 42/99/130 41/98/131 47/105/132
f 48/106/133 40/97/134 42/99/135 46/107/136
f 47/108/137 41/98/138 39/96/139 45/109/140
f 44/110/141 37/94/142 40/97/143 48/111/144
f 44/112/145 48/113/146 45/114/147 43/115/148
f 48/113/149 46/116/150 47/117/151 45/114/152
