# This file uses centimeters as units for non-parametric coordinates.

mtllib gravestone_1.mtl
g default
v 2.186219 5.665857 16.530314
v -2.618931 6.095577 16.530314
v 2.503090 2.658152 16.530313
v -2.552213 2.658152 16.530313
v 2.186219 2.931502 16.530313
v -2.181017 2.931502 16.530313
v -2.181017 5.665857 16.530314
v 2.618931 6.095577 16.530314
v -2.213368 7.553751 16.530314
v 2.234575 7.553751 16.530314
v 1.309466 8.670505 16.530314
v -1.309465 8.670505 16.530314
v 2.503090 -0.260304 16.530313
v -2.552213 -0.260304 16.530313
v -2.345605 5.665857 16.530314
v 2.343515 5.665857 16.530314
v 0.029819 9.459843 16.530314
v -2.552213 -0.260304 15.745278
v 2.503090 -0.260304 15.745278
v -2.552213 2.658152 15.745278
v -2.345605 5.665857 15.745278
v -2.181017 5.665857 15.745278
v -2.618931 6.095577 15.745278
v 2.618931 6.095577 15.745278
v 2.234575 7.553751 15.745278
v 0.029819 9.459843 15.745279
v 1.309466 8.670505 15.745279
v 2.503090 2.658152 15.745278
v 2.186219 2.931502 15.745278
v 2.186219 5.665857 15.745278
v 2.343515 5.665857 15.745278
v -2.213368 7.553751 15.745278
v -1.309465 8.670505 15.745279
v -2.181017 2.931502 15.745278
vt 0.305071 0.384572
vt 0.273642 0.754070
vt 0.011562 0.777679
vt 0.290808 0.590052
vt 0.015225 0.590052
vt 0.273669 0.605139
vt 0.035392 0.605139
vt 0.035419 0.754068
vt 0.297190 0.777671
vt 0.033678 0.857142
vt 0.276287 0.857149
vt 0.225813 0.918061
vt 0.082974 0.918058
vt 0.029699 0.384600
vt 0.290808 0.431019
vt 0.015225 0.431033
vt 0.026430 0.754197
vt 0.282229 0.754197
vt 0.156030 0.961062
vt 0.297190 0.777671
vt 0.290808 0.590052
vt 0.273669 0.605139
vt 0.273642 0.754070
vt 0.276287 0.857149
vt 0.225813 0.918061
vt 0.290808 0.431019
vt 0.282229 0.754197
vt 0.156030 0.961062
vt 0.156030 0.992892
vt 0.029892 0.351880
vt 0.323341 0.431064
vt 0.304878 0.351880
vt 0.323341 0.431064
vt 0.323161 0.590052
vt 0.306141 0.605139
vt 0.309723 0.736666
vt 0.306139 0.732417
vt 0.306139 0.732417
vt 0.309723 0.736666
vt 0.326663 0.773151
vt 0.326663 0.773151
vt 0.304630 0.871739
vt 0.304630 0.871739
vt 0.246840 0.942348
vt 0.156030 0.992892
vt 0.246840 0.942348
vt 0.323161 0.590052
vt 0.306141 0.605139
vt 0.273642 0.754181
vt 0.011531 0.777621
vt 0.290808 0.590052
vt 0.015225 0.590052
vt 0.273642 0.605139
vt 0.035416 0.605139
vt 0.035419 0.754181
vt 0.297246 0.777621
vt 0.033654 0.857162
vt 0.276280 0.857161
vt 0.225817 0.918078
vt 0.082960 0.918078
vt 0.290808 0.430922
vt 0.015225 0.430922
vt 0.026441 0.754181
vt 0.282222 0.754181
vt 0.156015 0.961135
vn 0.000000 -0.000000 1.000000
vn 0.000000 -0.000000 1.000000
vn 0.000000 -0.000000 1.000000
vn 0.000000 -0.000000 1.000000
vn 0.000000 -0.000000 1.000000
vn 0.000000 -0.000000 1.000000
vn 0.000000 -0.000000 1.000000
vn 0.000000 -0.000000 1.000000
vn 0.000000 -0.000000 1.000000
vn 0.000000 -0.000000 1.000000
vn 0.000000 -0.000000 1.000000
vn 0.000000 -0.000000 1.000000
vn 0.000000 -0.000000 1.000000
vn 0.000000 -0.000000 1.000000
vn 0.000000 -0.000000 1.000000
vn 0.000000 -0.000000 1.000000
vn 0.000000 -0.000000 1.000000
vn 0.000000 -0.000000 1.000000
vn 0.000000 -0.000000 1.000000
vn 0.000000 -0.000000 1.000000
vn 0.000000 -0.000000 1.000000
vn 0.000000 -0.000000 1.000000
vn 0.000000 -0.000000 1.000000
vn 0.000000 -0.000000 1.000000
vn 0.000000 -0.000000 1.000000
vn 0.000000 -0.000000 1.000000
vn 0.000000 -0.000000 1.000000
vn 0.000000 -0.000000 1.000000
vn 0.000000 -0.000000 1.000000
vn 0.000000 -0.000000 1.000000
vn 0.000000 -0.000000 1.000000
vn 0.000000 -0.000000 1.000000
vn 0.000000 -0.000000 1.000000
vn 0.000000 -1.000000 -0.000000
vn 0.000000 -1.000000 -0.000000
vn 0.000000 -1.000000 -0.000000
vn 0.000000 -1.000000 -0.000000
vn 1.000000 0.000000 0.000000
vn 1.000000 0.000000 0.000000
vn 1.000000 0.000000 0.000000
vn 1.000000 0.000000 0.000000
vn -1.000000 0.000000 0.000000
vn -1.000000 0.000000 0.000000
vn -1.000000 0.000000 0.000000
vn -1.000000 0.000000 0.000000
vn 0.889398 0.457134 0.000000
vn 0.889398 0.457134 0.000000
vn 0.656256 0.754538 0.000000
vn 0.656256 0.754538 0.000000
vn -0.652939 0.757410 0.000000
vn -0.652939 0.757410 0.000000
vn -0.888898 0.458104 0.000000
vn -0.888898 0.458104 0.000000
vn -0.592971 0.805224 0.000000
vn -0.592971 0.805224 0.000000
vn -0.592971 0.805224 0.000000
vn -0.592971 0.805224 0.000000
vn 0.653195 0.757190 0.000000
vn 0.653195 0.757190 0.000000
vn 0.653195 0.757190 0.000000
vn 0.653195 0.757190 0.000000
vn -1.000000 0.000000 0.000000
vn -1.000000 0.000000 0.000000
vn -1.000000 0.000000 0.000000
vn -1.000000 0.000000 0.000000
vn 1.000000 0.000000 0.000000
vn 1.000000 0.000000 0.000000
vn 1.000000 0.000000 0.000000
vn 1.000000 0.000000 0.000000
vn 0.000000 -1.000000 -0.000000
vn 0.000000 -1.000000 -0.000000
vn 0.000000 -1.000000 -0.000000
vn 0.000000 -1.000000 -0.000000
vn -0.843779 -0.536691 -0.000000
vn -0.843779 -0.536691 -0.000000
vn -0.843779 -0.536691 -0.000000
vn -0.843779 -0.536691 -0.000000
vn 0.841919 -0.539604 -0.000000
vn 0.841919 -0.539604 -0.000000
vn 0.841919 -0.539604 -0.000000
vn 0.841919 -0.539604 -0.000000
vn 0.000000 -1.000000 -0.000000
vn 0.000000 -1.000000 -0.000000
vn 0.000000 -1.000000 -0.000000
vn 0.000000 -1.000000 -0.000000
vn 0.966972 0.254882 0.000000
vn 0.966972 0.254882 0.000000
vn 0.889398 0.457134 0.000000
vn 0.889398 0.457134 0.000000
vn -0.888898 0.458104 0.000000
vn -0.888898 0.458104 0.000000
vn -0.963430 0.267960 0.000000
vn -0.963430 0.267960 0.000000
vn -0.507749 0.861505 0.000000
vn -0.507749 0.861505 0.000000
vn -0.652939 0.757410 0.000000
vn -0.652939 0.757410 0.000000
vn 0.656256 0.754538 0.000000
vn 0.656256 0.754538 0.000000
vn 0.524996 0.851105 0.000000
vn 0.524996 0.851105 0.000000
vn 0.000000 0.000000 -1.000000
vn 0.000000 0.000000 -1.000000
vn 0.000000 0.000000 -1.000000
vn 0.000000 0.000000 -1.000000
vn 0.000000 0.000000 -1.000000
vn 0.000000 0.000000 -1.000000
vn 0.000000 0.000000 -1.000000
vn 0.000000 0.000000 -1.000000
vn 0.000000 0.000000 -1.000000
vn 0.000000 0.000000 -1.000000
vn 0.000000 0.000000 -1.000000
vn 0.000000 0.000000 -1.000000
vn 0.000000 0.000000 -1.000000
vn 0.000000 0.000000 -1.000000
vn 0.000000 0.000000 -1.000000
vn 0.000000 0.000000 -1.000000
vn 0.000000 0.000000 -1.000000
vn 0.000000 0.000000 -1.000000
vn 0.000000 0.000000 -1.000000
vn 0.000000 0.000000 -1.000000
vn 0.000000 0.000000 -1.000000
vn 0.000000 0.000000 -1.000000
vn 0.000000 0.000000 -1.000000
vn 0.000000 0.000000 -1.000000
vn 0.000000 0.000000 -1.000000
vn 0.000000 0.000000 -1.000000
vn 0.000000 0.000000 -1.000000
vn 0.000000 0.000000 -1.000000
vn 0.000000 0.000000 -1.000000
vn 0.000000 0.000000 -1.000000
vn 0.000000 0.000000 -1.000000
vn 0.000000 0.000000 -1.000000
vn 0.000000 0.000000 -1.000000
s off
g Gravestone2
usemtl lambert12SG
f 14/16/1 13/15/2 3/4/3 4/5/4
f 7/8/5 1/2/6 8/9/7 2/3/8
f 9/10/9 10/11/10 11/12/11 12/13/12
f 5/6/13 6/7/14 4/5/15 3/4/16
f 1/2/17 7/8/18 6/7/19 5/6/20
f 15/17/21 7/8/22 2/3/23
f 16/18/24 8/9/25 1/2/26
f 2/3/27 8/9/28 10/11/29 9/10/30
f 17/19/31 12/13/32 11/12/33
f 14/14/34 18/30/35 19/32/36 13/1/37
f 13/15/38 19/33/39 28/47/40 3/4/41
f 4/21/42 20/34/43 18/31/44 14/26/45
f 10/11/46 25/43/47 27/46/48 11/12/49
f 12/25/50 33/44/51 32/42/52 9/24/53
f 6/22/54 34/48/55 20/34/56 4/21/57
f 3/4/58 28/47/59 29/35/60 5/6/61
f 7/23/62 22/37/63 34/48/64 6/22/65
f 5/6/66 29/35/67 30/38/68 1/2/69
f 15/27/70 21/36/71 22/37/72 7/23/73
f 2/20/74 23/40/75 21/36/76 15/27/77
f 16/18/78 31/39/79 24/41/80 8/9/81
f 1/2/82 30/38/83 31/39/84 16/18/85
f 8/9/86 24/41/87 25/43/88 10/11/89
f 9/24/90 32/42/91 23/40/92 2/20/93
f 17/28/94 26/29/95 33/44/96 12/25/97
f 11/12/98 27/46/99 26/45/100 17/19/101
f 18/62/102 20/52/103 28/51/104 19/61/105
f 22/55/106 23/50/107 24/56/108 30/49/109
f 32/57/110 33/60/111 27/59/112 25/58/113
f 29/53/114 28/51/115 20/52/116 34/54/117
f 30/49/118 29/53/119 34/54/120 22/55/121
f 21/63/122 23/50/123 22/55/124
f 31/64/125 30/49/126 24/56/127
f 23/50/128 32/57/129 25/58/130 24/56/131
f 26/65/132 27/59/133 33/60/134
