# This file uses centimeters as units for non-parametric coordinates.

mtllib gravestoneBroken_1.mtl
g default
v -159.861618 0.785035 -4.237831
v -160.045658 0.785035 -4.074251
v -159.561078 0.785035 -4.238293
v -156.575471 0.785035 -4.987694
v -158.392995 0.785035 -4.987695
v -159.071565 0.785035 -4.531423
v -155.928059 0.785035 -4.531423
v -157.504748 0.785035 -5.169850
v -155.385278 0.785035 -4.238059
v -154.937232 0.785035 -4.074251
v -155.086918 0.785035 -4.238094
v -159.452982 0.785035 -4.531423
v -155.623997 0.785035 -4.531243
v -159.861618 0.000000 -4.237831
v -160.045658 0.000000 -4.074251
v -159.561078 0.000000 -4.238293
v -158.392995 0.000000 -4.987695
v -159.071565 0.000000 -4.531423
v -155.928059 0.000000 -4.531423
v -156.575471 0.000000 -4.987694
v -157.504748 0.000000 -5.169850
v -154.937232 0.000000 -4.074251
v -155.086918 0.000000 -4.238094
v -155.385278 0.000000 -4.238059
v -159.452982 0.000000 -4.531423
v -155.623997 0.000000 -4.531243
v -154.937232 0.785035 0.255407
v -160.045658 0.785035 -0.347383
v -154.937232 -0.000000 0.551926
v -160.045658 0.000000 -0.234218
v -156.214338 0.785035 -0.200216
v -156.214338 -0.000000 0.255407
v -160.066721 0.785035 1.114252
v -160.102719 -0.000000 1.525706
v -157.906452 0.785035 1.433960
v -157.558225 -0.000000 1.748320
v -159.976933 0.785035 0.087978
v -159.951706 0.000000 -0.200376
v -156.807041 0.785035 0.613014
v -156.160194 -0.000000 0.421900
v -160.314022 0.680815 4.071973
v -155.282501 0.584763 5.169849
v -160.314022 -0.101233 4.003553
v -155.282501 -0.197284 5.101429
v -154.905146 0.960682 0.873078
v -160.160929 0.833325 2.328774
v -154.905146 0.178635 0.804658
v -160.119919 0.092132 1.793382
v -156.060300 0.952973 0.961192
v -157.368428 0.835194 2.307417
v -156.177394 0.188336 0.693773
v -157.575425 0.072730 2.015147
v -159.084787 0.628266 4.672609
v -159.084787 -0.153781 4.604189
vt 0.382380 0.912439
vt 0.373519 0.901854
vt 0.400514 0.912023
vt 0.564515 0.951584
vt 0.464201 0.951508
vt 0.427359 0.926120
vt 0.598824 0.924686
vt 0.512762 0.962785
vt 0.628520 0.909444
vt 0.652879 0.899717
vt 0.644930 0.908728
vt 0.405952 0.926433
vt 0.615282 0.925056
vt 0.360432 0.933653
vt 0.340513 0.900264
vt 0.382241 0.932676
vt 0.450836 0.978823
vt 0.412175 0.952334
vt 0.426956 0.925852
vt 0.412073 0.952495
vt 0.450782 0.978967
vt 0.463932 0.950879
vt 0.513177 0.993241
vt 0.513235 0.993277
vt 0.513279 0.961318
vt 0.338521 0.902184
vt 0.373542 0.901089
vt 0.382720 0.911904
vt 0.361274 0.935518
vt 0.382274 0.933120
vt 0.400755 0.910290
vt 0.393310 0.948869
vt 0.406893 0.925454
vt 0.392939 0.949848
vt 0.384187 0.909073
vt 0.400690 0.909265
vt 0.374224 0.899627
vt 0.563464 0.949899
vt 0.598944 0.924926
vt 0.427382 0.924870
vt 0.464599 0.949857
vt 0.512820 0.960014
vt 0.628347 0.909245
vt 0.652898 0.900134
vt 0.644905 0.909355
vt 0.406799 0.924932
vt 0.615821 0.924964
vt 0.652783 0.664133
vt 0.370389 0.668350
vt 0.374793 0.701842
vt 0.670925 0.652755
vt 0.340730 0.647411
vt 0.374232 0.690957
vt 0.342720 0.696261
vt 0.580794 0.681164
vt 0.584123 0.660762
vt 0.374532 0.601749
vt 0.374233 0.586863
vt 0.341511 0.586777
vt 0.490880 0.608193
vt 0.513560 0.586863
vt 0.374228 0.665403
vt 0.373956 0.673436
vt 0.341511 0.681173
vt 0.548918 0.653469
vt 0.583223 0.665532
vt 0.374233 0.465449
vt 0.652692 0.429524
vt 0.374228 0.429524
vt 0.341510 0.429524
vt 0.341510 0.465445
vt 0.374238 0.465471
vt 0.652887 0.429524
vt 0.374228 0.665403
vt 0.652788 0.665403
vt 0.374228 0.561141
vt 0.341511 0.665403
vt 0.652887 0.665532
vt 0.341511 0.586777
vt 0.374233 0.586863
vt 0.590449 0.655109
vt 0.525798 0.575563
vt 0.583223 0.665532
vt 0.513560 0.586863
vt 0.443845 0.438560
vt 0.443901 0.438567
vt 0.607729 0.378170
vt 0.355587 0.378170
vt 0.607729 0.417510
vt 0.355587 0.417510
vt 0.546129 0.378170
vt 0.345232 0.314922
vt 0.546129 0.417510
vt 0.601227 0.314922
vt 0.345232 0.354262
vt 0.601227 0.354262
vt 0.409231 0.314922
vt 0.409231 0.354262
vt 0.449806 0.332162
vt 0.447115 0.292872
vt 0.557785 0.330317
vt 0.574842 0.289396
vt 0.347107 0.283394
vt 0.348371 0.322734
vt 0.505844 0.283256
vt 0.538487 0.322872
vt 0.661501 0.367656
vt 0.407237 0.354822
vt 0.661501 0.406996
vt 0.415670 0.399867
vt 0.603657 0.367360
vt 0.511846 0.346036
vt 0.597701 0.407292
vt 0.503253 0.387322
vt 0.623234 0.351131
vt 0.665544 0.322065
vn 0.000000 1.000000 0.000000
vn 0.000000 1.000000 0.000000
vn 0.000000 1.000000 0.000000
vn 0.000000 1.000000 0.000000
vn 0.000000 1.000000 0.000000
vn 0.000000 1.000000 0.000000
vn 0.000000 1.000000 0.000000
vn 0.000000 1.000000 0.000000
vn 0.000000 1.000000 0.000000
vn 0.000000 1.000000 0.000000
vn 0.000000 1.000000 0.000000
vn 0.000000 1.000000 0.000000
vn 0.000000 1.000000 0.000000
vn 0.000000 1.000000 0.000000
vn 0.000000 1.000000 0.000000
vn 0.000000 1.000000 0.000000
vn 0.000000 1.000000 0.000000
vn 0.000000 1.000000 0.000000
vn 0.000000 1.000000 0.000000
vn 0.000000 1.000000 0.000000
vn 0.000000 1.000000 0.000000
vn 0.000000 1.000000 0.000000
vn 0.000000 1.000000 0.000000
vn 0.000000 1.000000 0.000000
vn 0.000000 1.000000 0.000000
vn 0.000000 1.000000 0.000000
vn 0.000000 1.000000 0.000000
vn -0.356083 0.000000 -0.934454
vn -0.356083 0.000000 -0.934454
vn -0.664341 0.000000 -0.747430
vn -0.664341 0.000000 -0.747430
vn -0.001535 0.000000 -0.999999
vn -0.001535 0.000000 -0.999999
vn -0.356083 0.000000 -0.934454
vn -0.356083 0.000000 -0.934454
vn -0.386760 0.000000 -0.922181
vn -0.386760 0.000000 -0.922181
vn -0.291678 0.000000 -0.956516
vn -0.291678 0.000000 -0.956516
vn 0.302442 0.000000 -0.953168
vn 0.302442 0.000000 -0.953168
vn 0.392860 0.000000 -0.919598
vn 0.392860 0.000000 -0.919598
vn -0.004352 0.000000 -0.999991
vn -0.004352 0.000000 -0.999991
vn -0.386760 0.000000 -0.922181
vn -0.386760 0.000000 -0.922181
vn 0.392860 0.000000 -0.919598
vn 0.392860 0.000000 -0.919598
vn -0.004352 0.000000 -0.999991
vn -0.004352 0.000000 -0.999991
vn -1.000000 0.000000 0.000000
vn -1.000000 0.000000 0.000000
vn -1.000000 0.000000 0.000000
vn -1.000000 0.000000 0.000000
vn -0.000118 -0.000000 -1.000000
vn -0.000118 -0.000000 -1.000000
vn -0.000118 -0.000000 -1.000000
vn -0.000118 -0.000000 -1.000000
vn 0.932278 0.000000 -0.361744
vn 0.932278 0.000000 -0.361744
vn 0.738283 0.000000 -0.674491
vn 0.738283 0.000000 -0.674491
vn -0.938238 0.000000 -0.345990
vn -0.938238 0.000000 -0.345990
vn -0.938238 0.000000 -0.345990
vn -0.938238 0.000000 -0.345990
vn -0.291678 0.000000 -0.956516
vn -0.291678 0.000000 -0.956516
vn 0.000000 0.000000 -1.000000
vn 0.000000 0.000000 -1.000000
vn 0.000593 0.000000 -1.000000
vn 0.000593 0.000000 -1.000000
vn 0.302442 0.000000 -0.953168
vn 0.302442 0.000000 -0.953168
vn 0.775456 0.000000 -0.631401
vn 0.775456 0.000000 -0.631401
vn 0.775456 0.000000 -0.631401
vn 0.775456 0.000000 -0.631401
vn 0.000000 -1.000000 -0.000000
vn 0.000000 -1.000000 -0.000000
vn 0.000000 -1.000000 -0.000000
vn 0.000000 -1.000000 -0.000000
vn 0.000000 -1.000000 -0.000000
vn 0.000000 -1.000000 -0.000000
vn 0.000000 -1.000000 -0.000000
vn 0.000000 -1.000000 -0.000000
vn 0.000000 -1.000000 -0.000000
vn 0.000000 -1.000000 -0.000000
vn 0.000000 -1.000000 -0.000000
vn 0.000000 -1.000000 -0.000000
vn 0.000000 -1.000000 -0.000000
vn 0.000000 -1.000000 -0.000000
vn 0.000000 -1.000000 -0.000000
vn 0.000000 -1.000000 -0.000000
vn 0.000000 -1.000000 -0.000000
vn 0.000000 -1.000000 -0.000000
vn 0.000000 -1.000000 -0.000000
vn 0.000000 -1.000000 -0.000000
vn 0.000000 -1.000000 -0.000000
vn 0.000000 -1.000000 -0.000000
vn 0.000000 -1.000000 -0.000000
vn 0.000000 -1.000000 -0.000000
vn 0.000000 -1.000000 -0.000000
vn 0.000000 -1.000000 -0.000000
vn 0.000000 -1.000000 -0.000000
vn 0.000000 1.000000 0.000000
vn 0.000000 1.000000 0.000000
vn 0.000000 1.000000 0.000000
vn 1.000000 0.000000 0.000000
vn 0.932278 0.000000 -0.361744
vn 0.932278 0.000000 -0.361744
vn 1.000000 0.000000 0.000000
vn 0.000000 -1.000000 -0.000000
vn 0.000000 -1.000000 -0.000000
vn 0.000000 -1.000000 -0.000000
vn 0.000000 -1.000000 -0.000000
vn 0.000000 -1.000000 -0.000000
vn 0.000000 -1.000000 -0.000000
vn 0.000000 -1.000000 -0.000000
vn 0.000000 -1.000000 -0.000000
vn -0.996195 0.000000 -0.087156
vn -0.996195 0.000000 -0.087156
vn -0.996195 0.000000 -0.087156
vn -0.996195 0.000000 -0.087156
vn 0.000000 1.000000 0.000000
vn 0.000000 1.000000 0.000000
vn 0.000000 1.000000 0.000000
vn 0.000000 1.000000 0.000000
vn 0.000000 0.996195 0.087156
vn 0.000000 0.996195 0.087156
vn 0.000000 0.996195 0.087156
vn 0.000000 0.996195 0.087156
vn -0.289084 -0.083435 0.953661
vn -0.130157 -0.086414 0.987721
vn -0.130157 -0.086414 0.987721
vn -0.289084 -0.083435 0.953661
vn 0.996195 -0.007596 0.086824
vn 0.996195 -0.007596 0.086824
vn 0.996195 -0.007596 0.086824
vn 0.996195 -0.007596 0.086824
vn -0.000000 0.996195 0.087156
vn -0.000000 0.996195 0.087156
vn 0.000000 0.996195 0.087156
vn -0.996195 0.007597 -0.086824
vn -0.996195 0.007597 -0.086824
vn -0.996195 0.007597 -0.086824
vn -0.996195 0.007597 -0.086824
vn 0.000000 -0.996195 -0.087156
vn 0.000000 -0.996195 -0.087156
vn -0.000000 -0.996195 -0.087156
vn 0.000000 -0.996195 -0.087156
vn -0.000000 0.996195 0.087156
vn 0.000000 0.996195 0.087156
vn 0.000000 0.996195 0.087156
vn -0.000000 -0.996195 -0.087156
vn 0.000000 -0.996195 -0.087156
vn 0.000000 -0.996195 -0.087156
vn 0.000000 -0.996195 -0.087156
vn -0.000000 -0.996195 -0.087156
vn 0.000000 -0.996195 -0.087156
vn 0.000000 1.000000 0.000000
vn 0.000000 1.000000 0.000000
vn 0.000000 1.000000 0.000000
vn 0.000000 -1.000000 -0.000000
vn 0.000000 -1.000000 -0.000000
vn 0.000000 -1.000000 -0.000000
vn -0.138879 0.465600 0.874030
vn -0.157984 0.439194 0.884393
vn -0.256674 0.417561 0.871643
vn -0.256674 0.417561 0.871643
vn -0.104951 0.400025 0.910475
vn -0.104951 0.400025 0.910475
vn 0.321864 0.445894 0.835214
vn 0.201936 0.441298 0.874344
vn 0.029597 0.179529 -0.983307
vn -0.376983 0.337094 -0.862700
vn -0.387759 0.379381 -0.840067
vn 0.321864 0.445894 0.835214
vn 0.589424 0.427374 0.685515
vn 0.589424 0.427374 0.685515
vn 0.201936 0.441298 0.874344
vn 0.152466 0.347771 -0.925100
vn 0.152466 0.347771 -0.925100
vn 0.152466 0.347771 -0.925100
vn 0.152466 0.347771 -0.925100
vn -0.376983 0.337094 -0.862700
vn -0.311006 0.465410 -0.828655
vn -0.369990 0.456835 -0.808955
vn -0.387759 0.379381 -0.840067
vn -0.311006 0.465410 -0.828655
vn 0.034511 0.478997 -0.877138
vn 0.034511 0.478997 -0.877138
vn -0.369990 0.456835 -0.808955
vn -0.138879 0.465600 0.874030
vn -0.113071 0.196086 0.974046
vn -0.157984 0.439194 0.884393
vn 0.000000 1.000000 0.000000
vn 0.000000 1.000000 0.000000
vn 0.000000 1.000000 0.000000
vn 0.029597 0.179529 -0.983307
vn 0.087157 0.086824 -0.992404
vn -0.376983 0.337094 -0.862700
vn -0.113071 0.196086 0.974046
vn -0.125488 0.141551 0.981945
vn -0.157984 0.439194 0.884393
vn -0.289084 -0.083435 0.953661
vn -0.440372 -0.078250 0.894399
vn -0.440372 -0.078250 0.894399
vn -0.289084 -0.083435 0.953661
vn 0.000000 0.996195 0.087156
vn 0.000000 0.996195 0.087156
vn 0.000000 0.996195 0.087156
vn 0.000000 -0.996195 -0.087156
vn 0.000000 -0.996195 -0.087156
vn 0.000000 -0.996195 -0.087156
s off
g Gravestone_broke2
usemtl lambert14SG
f 1/1/1 2/2/2 3/3/3
f 4/4/4 5/5/5 6/6/6 7/7/7
f 8/8/8 5/5/9 4/4/10
f 7/7/11 6/6/12 3/3/13 9/9/14
f 10/10/15 9/9/16 3/3/17 2/2/18
f 11/11/19 9/9/20 10/10/21
f 12/12/22 3/3/23 6/6/24
f 13/13/25 7/7/26 9/9/27
f 1/1/28 14/14/29 15/15/30 2/2/31
f 3/3/32 16/16/33 14/14/34 1/1/35
f 5/5/36 17/17/37 18/18/38 6/6/39
f 7/19/40 19/20/41 20/21/42 4/22/43
f 8/8/44 21/23/45 17/17/46 5/5/47
f 4/22/48 20/21/49 21/24/50 8/25/51
f 30/54/52 28/50/53 2/2/54 15/15/55
f 11/28/56 23/29/57 24/30/58 9/31/59
f 10/27/60 22/26/61 23/29/62 11/28/63
f 12/12/64 25/32/65 16/16/66 3/3/67
f 6/6/68 18/18/69 25/32/70 12/12/71
f 13/33/72 26/34/73 19/20/74 7/19/75
f 9/31/76 24/30/77 26/34/78 13/33/79
f 14/35/80 16/36/81 15/37/82
f 20/38/83 19/39/84 18/40/85 17/41/86
f 21/42/87 20/38/88 17/41/89
f 19/39/90 24/43/91 16/36/92 18/40/93
f 22/44/94 15/37/95 16/36/96 24/43/97
f 23/45/98 22/44/99 24/43/100
f 25/46/101 18/40/102 16/36/103
f 26/47/104 24/43/105 19/39/106
f 27/48/107 10/10/108 31/55/109
f 29/52/110 22/26/111 10/27/112 27/49/113
f 30/53/114 15/37/115 22/44/116 32/56/117
f 40/66/118 36/61/119 34/58/120 38/63/121
f 38/64/122 34/59/123 33/57/124 37/62/125
f 39/65/126 37/62/127 33/57/128 35/60/129
f 49/81/130 50/82/131 42/68/132 45/75/133
f 54/93/134 44/90/135 42/88/136 53/91/137
f 47/77/138 45/74/139 42/69/140 44/70/141
f 46/76/142 41/67/143 50/82/144
f 48/79/145 43/71/146 41/67/147 46/76/148
f 51/83/149 47/78/150 44/73/151 52/84/152
f 41/67/153 53/85/154 50/82/155
f 44/73/156 54/86/157 52/84/158
f 43/72/159 48/80/160 52/84/161
f 10/10/162 2/2/163 31/55/164
f 22/44/165 29/51/166 32/56/167
f 31/97/168 32/98/169 29/95/170 27/92/171
f 33/99/172 34/100/173 36/102/174 35/101/175
f 45/107/176 51/113/177 49/111/178
f 36/102/179 40/116/180 39/115/181 35/101/182
f 40/106/183 38/104/184 37/103/185 39/105/186
f 51/113/187 52/114/188 50/112/189 49/111/190
f 52/114/191 48/110/192 46/108/193 50/112/194
f 31/97/195 28/94/196 32/98/197
f 2/2/198 28/50/199 31/55/200
f 45/107/201 47/109/202 51/113/203
f 28/94/204 30/96/205 32/98/206
f 53/91/207 41/87/208 43/89/209 54/93/210
f 53/85/211 42/68/212 50/82/213
f 54/86/214 43/72/215 52/84/216
