# This file uses centimeters as units for non-parametric coordinates.

mtllib stoneWall.mtl
g default
v 42.021840 -0.000000 21.421347
v 91.257664 -0.000000 21.027539
v 42.021840 0.000000 18.108664
v 91.257664 0.000000 18.225341
v 42.021852 7.051970 21.530893
v 91.270274 6.476691 21.985494
v 42.021852 7.051970 17.999118
v 92.021840 7.051970 17.999118
v 91.727940 6.826993 21.138772
v 42.021840 7.051970 20.960989
v 92.021858 7.051970 18.569021
v 42.021840 7.051970 18.569021
v 42.021852 8.984848 21.530893
v 90.906697 8.725355 21.530893
v 90.906697 8.725355 17.999118
v 42.021852 8.984848 17.999118
v 92.021855 1.523245 21.113646
v 92.021855 1.523245 18.108664
v 42.021840 1.523245 18.108664
v 42.021840 1.523245 21.421347
v 92.021855 2.494020 20.582144
v 92.021855 2.494020 18.569021
v 42.021840 2.494020 18.569021
v 42.021840 2.494020 20.960989
v 58.688508 0.000000 18.108664
v 75.355183 0.000000 18.108664
v 75.355183 -0.000000 21.421347
v 58.688508 -0.000000 21.421347
v 58.688514 7.051970 21.530893
v 75.355177 7.051970 21.530893
v 75.355177 7.051970 17.999118
v 58.688514 7.051970 17.999118
v 75.355183 7.051970 20.960989
v 58.688508 7.051970 20.960989
v 58.688508 7.051970 18.569021
v 75.355183 7.051970 18.569021
v 58.688514 8.984848 21.530893
v 75.355177 8.984848 21.530893
v 75.355177 8.984848 17.999118
v 58.688514 8.984848 17.999118
v 75.355183 1.523245 21.421347
v 58.688508 1.523245 21.421347
v 58.688508 1.523245 18.108664
v 75.355183 1.523245 18.108664
v 75.355183 2.494020 20.960989
v 58.688508 2.494020 20.960989
v 58.688508 2.494020 18.569021
v 75.355183 2.494020 18.569021
v 42.021840 0.000000 19.765005
v 91.257664 0.000000 19.765005
v 67.021858 0.000000 19.765005
v 58.688508 0.000000 18.108664
v 49.212460 -0.000000 21.421347
v 49.212460 1.523245 21.421347
v 49.212460 2.494020 20.960989
v 49.212460 7.051970 20.960989
v 49.212464 7.051970 21.530893
v 49.212464 8.041096 21.530893
v 49.212464 8.041096 17.999118
v 49.212464 7.051970 17.999118
v 49.212460 7.051970 18.569021
v 49.212460 2.494020 18.569021
v 49.212460 1.523245 18.108664
v 49.212460 0.000000 18.108664
v 45.449989 -0.000000 20.593176
v 51.093695 -0.000000 21.421347
v 51.093695 1.523245 21.421347
v 51.093695 2.494020 20.960989
v 51.093695 7.051970 20.960989
v 51.093698 7.051970 21.530893
v 51.093698 8.041096 21.530893
v 51.093698 8.041096 17.999118
v 51.093698 7.051970 17.999118
v 51.093695 7.051970 18.569021
v 51.093695 2.494020 18.569021
v 51.093695 1.523245 18.108664
v 51.093695 0.000000 18.108664
v 45.449989 0.000000 18.936835
vt 0.325180 0.049328
vt 0.007176 0.049328
vt 0.416808 0.907228
vt 0.009785 0.907228
vt 0.255346 0.122599
vt 0.143857 0.051524
vt 0.325180 0.019800
vt 0.007176 0.019800
vt 0.078520 0.907228
vt 0.164563 0.907228
vt 0.217462 0.122599
vt 0.217462 0.053376
vt 0.143857 0.120747
vt 0.255346 0.053376
vt 0.325180 0.019800
vt 0.007176 0.019800
vt 0.164563 0.907228
vt 0.078520 0.907228
vt 0.105973 0.051524
vt 0.105973 0.120747
vt 0.007176 0.007599
vt 0.217462 0.111429
vt 0.325180 0.007599
vt 0.105973 0.062694
vt 0.217462 0.064546
vt 0.007176 0.007599
vt 0.325180 0.007599
vt 0.105973 0.109577
vt 0.416808 0.907228
vt 0.009785 0.907228
vt 0.416808 0.949468
vt 0.009785 0.949468
vt 0.011634 0.536497
vt 0.007176 0.127049
vt 0.011634 0.536497
vt 0.335473 0.536497
vt 0.009785 0.949468
vt 0.325180 0.127049
vt 0.335473 0.536497
vt 0.325180 0.049328
vt 0.009785 0.949468
vt 0.007176 0.049328
vt 0.416808 0.949468
vt 0.011634 0.446450
vt 0.335473 0.446450
vt 0.078520 0.949468
vt 0.416808 0.949468
vt 0.164563 0.949468
vt 0.016637 0.109577
vt 0.016637 0.062694
vt 0.007176 0.049328
vt 0.011634 0.446450
vt 0.325180 0.049328
vt 0.009785 0.907228
vt 0.416808 0.907228
vt 0.009785 0.949468
vt 0.009785 0.949468
vt 0.416808 0.949468
vt 0.335473 0.446450
vt 0.416808 0.949468
vt 0.325180 0.127049
vt 0.007176 0.127049
vt 0.325180 0.049328
vt 0.007176 0.049328
vt 0.078520 0.949468
vt 0.164563 0.949468
vt 0.128126 0.111429
vt 0.128126 0.064546
vt 0.416808 0.949468
vt 0.009785 0.949468
vt 0.007176 0.049328
vt 0.325180 0.049328
vt 0.007176 0.019800
vt 0.325180 0.019800
vt 0.007176 0.127049
vt 0.325180 0.127049
vt 0.325180 0.049328
vt 0.007176 0.049328
vt 0.325180 0.019800
vt 0.007176 0.019800
vt 0.007176 0.007599
vt 0.325180 0.007599
vt 0.335473 0.536497
vt 0.011634 0.536497
vt 0.325180 0.019800
vt 0.007176 0.019800
vt 0.335473 0.446450
vt 0.011634 0.446450
vt 0.007176 0.019800
vt 0.325180 0.019800
vt 0.325180 0.007599
vt 0.007176 0.007599
vt 0.011634 0.536497
vt 0.335473 0.536497
vt 0.325180 0.007599
vt 0.007176 0.007599
vt 0.011634 0.446450
vt 0.335473 0.446450
vt 0.007176 0.049328
vt 0.325180 0.049328
vt 0.325180 0.049328
vt 0.007176 0.049328
vt 0.011634 0.536497
vt 0.335473 0.536497
vt 0.011634 0.446450
vt 0.335473 0.446450
vt 0.007176 0.007599
vt 0.325180 0.007599
vt 0.335473 0.536497
vt 0.011634 0.536497
vt 0.335473 0.446450
vt 0.011634 0.446450
vt 0.007176 0.049328
vt 0.325180 0.049328
vt 0.416808 0.907228
vt 0.009785 0.907228
vt 0.009785 0.907228
vt 0.416808 0.907228
vt 0.416808 0.907228
vt 0.009785 0.907228
vt 0.325180 0.127049
vt 0.007176 0.127049
vt 0.325180 0.127049
vt 0.007176 0.127049
vt 0.007176 0.127049
vt 0.325180 0.127049
vt 0.009785 0.988473
vt 0.416808 0.988473
vt 0.009785 0.988473
vt 0.416808 0.988473
vt 0.416808 0.988473
vt 0.009785 0.988473
vt 0.009785 0.988473
vt 0.416808 0.988473
vt 0.009785 0.988473
vt 0.416808 0.988473
vt 0.416808 0.988473
vt 0.009785 0.988473
vt 0.090430 0.988473
vt 0.152559 0.988473
vt 0.090524 0.988473
vt 0.152653 0.988473
vt 0.325180 0.088189
vt 0.121541 0.907228
vt 0.007176 0.088189
vt 0.121541 0.907228
vt 0.166178 0.088189
vt 0.325180 0.127049
vt 0.007176 0.127049
vt 0.213297 0.907228
vt 0.166178 0.049328
vt 0.213297 0.949468
vt 0.173553 0.446450
vt 0.213297 0.988473
vt 0.166178 0.007599
vt 0.173553 0.536497
vt 0.166178 0.019800
vt 0.166178 0.127049
vt 0.166178 0.049328
vt 0.166178 0.049328
vt 0.166178 0.019800
vt 0.166178 0.007599
vt 0.173553 0.536497
vt 0.173553 0.446450
vt 0.213297 0.988473
vt 0.213297 0.949468
vt 0.213297 0.907228
vt 0.166178 0.127049
vt 0.325180 0.068758
vt 0.143052 0.907228
vt 0.111541 0.907228
vt 0.086677 0.049328
vt 0.111541 0.949468
vt 0.092594 0.446450
vt 0.111541 0.988473
vt 0.086677 0.007599
vt 0.092594 0.536497
vt 0.086677 0.019800
vt 0.086677 0.127049
vt 0.086677 0.049328
vt 0.086677 0.049328
vt 0.086677 0.019800
vt 0.086677 0.007599
vt 0.092594 0.536497
vt 0.092594 0.446450
vt 0.111541 0.988473
vt 0.111541 0.949468
vt 0.111541 0.907228
vt 0.086677 0.127049
vt 0.100030 0.907228
vt 0.325180 0.107619
vn 0.000000 -1.000000 -0.000000
vn 0.000000 -1.000000 -0.000000
vn 0.000000 -1.000000 -0.000000
vn 0.000000 -1.000000 -0.000000
vn 0.000000 -0.000000 1.000000
vn 0.000000 -0.000000 1.000000
vn 0.000000 0.219600 0.975590
vn 0.000000 0.219600 0.975590
vn 1.000000 0.000000 0.000000
vn 1.000000 0.000000 0.000000
vn 1.000000 0.000000 0.000000
vn 0.000000 0.000000 -1.000000
vn 0.000000 0.000000 -1.000000
vn 0.000000 0.219600 -0.975590
vn 0.000000 0.219600 -0.975590
vn -1.000000 0.000000 0.000000
vn -0.406055 -0.913849 -0.000000
vn -1.000000 0.000000 0.000000
vn -1.000000 0.000000 0.000000
vn 0.000000 -1.000000 -0.000000
vn 0.000000 -1.000000 -0.000000
vn 0.000000 -1.000000 -0.000000
vn 0.000000 -1.000000 -0.000000
vn 0.000000 -1.000000 -0.000000
vn 0.000000 -1.000000 -0.000000
vn 0.000000 -1.000000 -0.000000
vn 0.000000 -1.000000 -0.000000
vn 0.000000 1.000000 0.000000
vn 0.000000 1.000000 0.000000
vn 0.000000 1.000000 0.000000
vn 0.000000 1.000000 0.000000
vn 0.000000 -0.000000 1.000000
vn 0.000000 -0.000000 1.000000
vn 0.000000 -0.000000 1.000000
vn 0.000000 -0.000000 1.000000
vn 1.000000 -0.000000 0.000032
vn 1.000000 0.000004 0.000009
vn 1.000000 0.000008 0.000006
vn 0.000000 0.000000 -1.000000
vn 0.000000 0.000000 -1.000000
vn 0.000000 0.000000 -1.000000
vn 0.000000 0.000000 -1.000000
vn -1.000000 0.000000 -0.000021
vn -1.000000 0.000002 -0.000006
vn -1.000000 0.000005 -0.000004
vn 0.000000 -0.000000 1.000000
vn 0.000000 -0.000000 1.000000
vn 0.000000 -0.000000 1.000000
vn 0.000000 -0.000000 1.000000
vn 1.000000 -0.000000 -0.000000
vn 1.000000 0.000004 -0.000009
vn 1.000000 0.000004 0.000009
vn 1.000000 -0.000000 -0.000000
vn 0.000000 0.000000 -1.000000
vn 0.000000 0.000000 -1.000000
vn 0.000000 0.000000 -1.000000
vn 0.000000 0.000000 -1.000000
vn -1.000000 0.000000 0.000000
vn -1.000000 0.000002 0.000006
vn -1.000000 0.000002 -0.000006
vn -1.000000 0.000000 0.000000
vn 0.000000 0.428479 0.903552
vn 0.000000 0.428479 0.903552
vn 0.000000 0.219600 0.975590
vn 0.000000 0.219600 0.975590
vn 1.000000 0.000000 0.000000
vn 1.000000 -0.000000 -0.000000
vn 1.000000 -0.000000 -0.000000
vn 1.000000 0.000000 0.000000
vn 0.000000 0.428479 -0.903552
vn 0.000000 0.428479 -0.903552
vn 0.000000 0.219600 -0.975590
vn 0.000000 0.219600 -0.975590
vn -1.000000 0.000000 0.000000
vn -1.000000 0.000000 0.000000
vn -1.000000 0.000000 0.000000
vn -1.000000 0.000000 0.000000
vn -1.000000 0.000002 -0.000006
vn -1.000000 0.000002 0.000006
vn -1.000000 0.000005 0.000004
vn -1.000000 0.000005 -0.000004
vn 1.000000 0.000004 -0.000009
vn 1.000000 0.000000 -0.000032
vn 1.000000 0.000008 -0.000006
vn 1.000000 0.000004 0.000009
vn 1.000000 0.000004 -0.000009
vn 1.000000 0.000008 -0.000006
vn 1.000000 0.000008 0.000006
vn -1.000000 0.000002 0.000006
vn -1.000000 -0.000000 0.000021
vn -1.000000 0.000005 0.000004
vn 0.000000 -1.000000 -0.000000
vn 0.000000 -1.000000 -0.000000
vn 0.000000 -1.000000 -0.000000
vn 0.000000 -1.000000 -0.000000
vn 0.000000 -1.000000 -0.000000
vn 0.000000 -1.000000 -0.000000
vn 0.000000 -1.000000 -0.000000
vn 0.000000 -0.000000 1.000000
vn 0.000000 -0.000000 1.000000
vn 0.000000 0.219600 0.975590
vn 0.000000 0.219600 0.975590
vn 0.000000 -0.000000 1.000000
vn 0.000000 0.219600 0.975590
vn 0.000000 -0.000000 1.000000
vn 0.000000 -0.000000 1.000000
vn 0.000000 0.000000 -1.000000
vn 0.000000 0.000000 -1.000000
vn 0.000000 0.219600 -0.975590
vn 0.000000 0.000000 -1.000000
vn 0.000000 0.219600 -0.975590
vn 0.000000 0.219600 -0.975590
vn 0.000000 0.000000 -1.000000
vn 0.000000 0.000000 -1.000000
vn 0.000000 -1.000000 -0.000000
vn 0.000000 -1.000000 -0.000000
vn 0.000000 -1.000000 -0.000000
vn 0.000000 -1.000000 -0.000000
vn 0.000000 -1.000000 -0.000000
vn 0.000000 -1.000000 -0.000000
vn 0.000000 -1.000000 -0.000000
vn 0.000000 -1.000000 -0.000000
vn 0.000000 -1.000000 -0.000000
vn 0.000000 -1.000000 -0.000000
vn 0.000000 -1.000000 -0.000000
vn 0.000000 -1.000000 -0.000000
vn 0.000000 -1.000000 -0.000000
vn 0.000000 -1.000000 -0.000000
vn 0.000000 -1.000000 -0.000000
vn 0.000000 -1.000000 -0.000000
vn 0.103472 0.994632 0.000000
vn 0.000000 1.000000 0.000000
vn 0.000000 1.000000 0.000000
vn 0.103472 0.994632 0.000000
vn 0.000000 1.000000 0.000000
vn 0.000000 1.000000 0.000000
vn 0.000000 1.000000 0.000000
vn 0.000000 1.000000 0.000000
vn 0.000000 -0.000000 1.000000
vn 0.000000 -0.000000 1.000000
vn 0.000000 -0.000000 1.000000
vn 0.000000 -0.000000 1.000000
vn 0.000000 -0.000000 1.000000
vn 0.000000 -0.000000 1.000000
vn 0.000000 -0.000000 1.000000
vn 0.000000 -0.000000 1.000000
vn 0.000000 0.000000 -1.000000
vn 0.000000 0.000000 -1.000000
vn 0.000000 0.000000 -1.000000
vn 0.000000 0.000000 -1.000000
vn 0.000000 0.000000 -1.000000
vn 0.000000 0.000000 -1.000000
vn 0.000000 0.000000 -1.000000
vn 0.000000 0.000000 -1.000000
vn 0.000000 -0.000000 1.000000
vn 0.000000 -0.000000 1.000000
vn 0.000000 -0.000000 1.000000
vn 0.000000 -0.000000 1.000000
vn 0.000000 -0.000000 1.000000
vn 0.000000 -0.000000 1.000000
vn 0.000000 -0.000000 1.000000
vn 0.000000 -0.000000 1.000000
vn 0.000000 0.000000 -1.000000
vn 0.000000 0.000000 -1.000000
vn 0.000000 0.000000 -1.000000
vn 0.000000 0.000000 -1.000000
vn 0.000000 0.000000 -1.000000
vn 0.000000 0.000000 -1.000000
vn 0.000000 0.000000 -1.000000
vn 0.000000 0.000000 -1.000000
vn 0.000000 0.428479 0.903552
vn 0.000000 0.428479 0.903552
vn 0.000000 0.219600 0.975590
vn 0.000000 0.428479 0.903552
vn 0.000000 0.219600 0.975590
vn 0.000000 0.219600 0.975590
vn 0.000000 0.428479 0.903552
vn 0.000000 0.428479 0.903552
vn 0.000000 0.428479 -0.903552
vn 0.000000 0.428479 -0.903552
vn 0.000000 0.219600 -0.975590
vn 0.000000 0.219600 -0.975590
vn 0.000000 0.428479 -0.903552
vn 0.000000 0.219600 -0.975590
vn 0.000000 0.428479 -0.903552
vn 0.000000 0.428479 -0.903552
vn 0.000000 -1.000000 -0.000000
vn 0.000000 -1.000000 -0.000000
vn 0.000000 -1.000000 -0.000000
vn 0.000000 -1.000000 -0.000000
vn 0.000000 -1.000000 -0.000000
vn 0.000000 -1.000000 -0.000000
vn 0.000000 -1.000000 -0.000000
vn 0.000000 -1.000000 -0.000000
vn 0.000000 -1.000000 -0.000000
vn 0.000000 -1.000000 -0.000000
vn 0.000000 -1.000000 -0.000000
vn 0.000000 -1.000000 -0.000000
vn 0.000000 -1.000000 -0.000000
vn 0.000000 -1.000000 -0.000000
vn 0.000000 -1.000000 -0.000000
vn 0.000000 -1.000000 -0.000000
vn 0.000000 -1.000000 -0.000000
vn 0.000000 -1.000000 -0.000000
vn 0.000000 -1.000000 -0.000000
vn 0.000000 -1.000000 -0.000000
vn 0.000000 -1.000000 -0.000000
vn 0.000000 -1.000000 -0.000000
vn 0.000000 -1.000000 -0.000000
vn -1.000000 0.000000 0.000000
vn -1.000000 0.000000 0.000000
vn -1.000000 0.000000 0.000000
vn -1.000000 0.000000 0.000000
vn -0.406055 -0.913849 -0.000000
vn -1.000000 0.000000 0.000000
vn -1.000000 0.000000 0.000000
vn 1.000000 0.000000 0.000000
vn 1.000000 0.000000 0.000000
vn 1.000000 0.000000 0.000000
vn 1.000000 0.000000 0.000000
vn 1.000000 0.000000 0.000000
vn 1.000000 0.000000 0.000000
vn 0.000000 -0.000000 1.000000
vn 0.000000 -0.000000 1.000000
vn 0.000000 0.428479 0.903552
vn 0.000000 0.428479 0.903552
vn 0.000000 -0.000000 1.000000
vn 0.000000 -0.000000 1.000000
vn 0.000000 -1.000000 -0.000000
vn 0.000000 -1.000000 -0.000000
vn 0.000000 -0.000000 1.000000
vn 0.000000 -0.000000 1.000000
vn -0.099103 0.995077 0.000000
vn -0.099103 0.995077 0.000000
vn 0.000000 0.000000 -1.000000
vn 0.000000 0.000000 -1.000000
vn 0.000000 -1.000000 -0.000000
vn 0.000000 -1.000000 -0.000000
vn 0.000000 0.000000 -1.000000
vn 0.000000 0.000000 -1.000000
vn 0.000000 0.428479 -0.903552
vn 0.000000 0.428479 -0.903552
vn 0.000000 0.000000 -1.000000
vn 0.000000 0.000000 -1.000000
vn 0.000000 -1.000000 -0.000000
vn 0.000000 -1.000000 -0.000000
vn 0.000000 0.219600 0.975590
vn 0.000000 -0.000000 1.000000
vn 0.000000 0.428479 0.903552
vn 0.000000 0.219600 0.975590
vn 0.000000 -0.000000 1.000000
vn 0.000000 -0.000000 1.000000
vn 0.000000 -1.000000 -0.000000
vn 0.000000 -1.000000 -0.000000
vn 0.000000 -0.000000 1.000000
vn 0.000000 -0.000000 1.000000
vn 0.000000 1.000000 0.000000
vn 0.000000 1.000000 0.000000
vn 0.000000 0.000000 -1.000000
vn 0.000000 0.000000 -1.000000
vn 0.000000 -1.000000 -0.000000
vn 0.000000 -1.000000 -0.000000
vn 0.000000 0.000000 -1.000000
vn 0.000000 0.000000 -1.000000
vn 0.000000 0.219600 -0.975590
vn 0.000000 0.428479 -0.903552
vn 0.000000 0.000000 -1.000000
vn 0.000000 0.219600 -0.975590
vn 0.000000 -1.000000 -0.000000
vn 0.000000 -1.000000 -0.000000
s off
g stuff_broken1
usemtl lambert10SG
f 25/123/1 26/124/2 51/147/3 52/148/4
f 28/118/5 27/117/6 41/57/7 42/58/8
f 2/9/9 50/146/10 17/65/11
f 26/30/12 25/29/13 43/31/14 44/32/15
f 3/18/16 78/190/17 49/144/18 19/46/19
f 30/80/20 29/79/21 34/82/22 33/81/23
f 32/74/24 31/73/25 36/92/26 35/91/27
f 39/71/28 40/72/29 37/61/30 38/62/31
f 29/79/32 30/80/33 38/102/34 37/101/35
f 6/11/36 9/22/37 14/5/38
f 31/73/39 32/74/40 40/72/41 39/71/42
f 7/20/43 12/28/44 16/13/45
f 33/93/46 34/94/47 46/98/48 45/97/49
f 22/68/50 11/25/51 9/22/52 21/67/53
f 35/83/54 36/84/55 48/88/56 47/87/57
f 24/50/58 10/24/59 12/28/60 23/49/61
f 45/133/62 46/134/63 42/58/64 41/57/65
f 18/66/66 22/142/67 21/141/68 17/65/69
f 47/131/70 48/132/71 44/32/72 43/31/73
f 20/48/74 24/140/75 23/139/76 19/46/77
f 12/28/78 10/24/79 13/6/80 16/13/81
f 11/25/82 8/12/83 15/14/84
f 9/22/85 11/25/86 15/14/87 14/5/88
f 10/24/89 5/19/90 13/6/91
f 26/126/92 50/145/93 27/63/94
f 28/64/95 49/143/96 25/125/97 52/149/98
f 27/119/99 2/116/100 17/41/101 41/69/102
s 1
f 54/152/103 20/47/104 1/115/105 53/150/106
s 2
f 64/167/107 3/3/108 19/43/109 63/166/110
s off
f 44/60/111 18/37/112 4/4/113 26/55/114
s 3
f 57/157/115 5/7/116 10/23/117 56/155/118
s off
f 33/95/119 9/21/120 6/8/121 30/90/122
f 31/85/123 8/16/124 11/26/125 36/108/126
s 4
f 61/162/127 12/27/128 7/15/129 60/161/130
s 5
f 59/160/131 16/40/132 13/38/133 58/158/134
s off
f 38/76/135 14/34/136 15/42/137 39/77/138
f 30/90/139 6/8/140 14/99/141 38/114/142
s 6
f 58/159/143 13/100/144 5/7/145 57/157/146
s 7
f 60/161/147 7/15/148 16/40/149 59/160/150
s off
f 39/77/151 15/42/152 8/16/153 31/85/154
s 8
f 56/156/155 10/39/156 24/59/157 55/153/158
s off
f 45/111/159 21/52/160 9/33/161 33/109/162
f 36/104/163 11/35/164 22/44/165 48/106/166
s 9
f 62/164/167 23/45/168 12/36/169 61/163/170
s 10
f 55/154/171 24/130/172 20/47/173 54/152/174
s off
f 41/69/175 17/41/176 21/129/177 45/137/178
f 48/136/179 22/127/180 18/37/181 44/60/182
s 11
f 63/166/183 19/43/184 23/128/185 62/165/186
s 12
f 66/172/187 53/151/188 1/1/189 65/169/190
s 13
f 78/191/191 3/121/192 64/168/193 77/189/194
s off
f 26/126/195 4/122/196 50/145/197
f 50/145/198 2/2/199 27/63/200
f 26/124/201 27/51/202 51/147/203
f 27/51/204 28/53/205 51/147/206
f 51/147/207 28/53/208 52/148/209
f 49/144/210 20/48/211 19/46/212
f 49/144/213 65/170/214 1/17/215 20/48/216
f 50/146/217 18/66/218 17/65/219
f 50/146/220 4/10/221 18/66/222
s 1
f 67/173/223 54/152/103 53/150/106 66/171/224
s 10
f 68/175/225 55/154/171 54/152/174 67/173/226
s 8
f 69/177/227 56/156/155 55/153/158 68/174/228
s 3
f 70/178/229 57/157/115 56/155/118 69/176/230
s 6
f 71/180/231 58/159/143 57/157/146 70/178/232
s 5
f 72/181/233 59/160/131 58/158/134 71/179/234
s 7
f 73/182/235 60/161/147 59/160/150 72/181/236
s 4
f 74/183/237 61/162/127 60/161/130 73/182/238
s 9
f 75/185/239 62/164/167 61/163/170 74/184/240
s 11
f 76/187/241 63/166/183 62/165/186 75/186/242
s 2
f 77/188/243 64/167/107 63/166/110 76/187/244
s 12
f 28/64/245 66/172/187 65/169/190 49/143/246
s 1
f 42/70/247 67/173/223 66/171/224 28/120/248
s 10
f 46/138/249 68/175/225 67/173/226 42/70/250
s 8
f 34/110/251 69/177/227 68/174/228 46/112/252
s 3
f 29/89/253 70/178/229 69/176/230 34/96/254
s 6
f 37/113/255 71/180/231 70/178/232 29/89/256
s 5
f 40/78/257 72/181/233 71/179/234 37/75/258
s 7
f 32/86/259 73/182/235 72/181/236 40/78/260
s 4
f 35/107/261 74/183/237 73/182/238 32/86/262
s 9
f 47/105/263 75/185/239 74/184/240 35/103/264
s 11
f 43/56/265 76/187/241 75/186/242 47/135/266
s 2
f 25/54/267 77/188/243 76/187/244 43/56/268
s 13
f 49/143/269 78/191/191 77/189/194 25/125/270
