# This file uses centimeters as units for non-parametric coordinates.

mtllib woodenFence.mtl
g default
v -7.037310 -0.051977 36.029531
v 11.222991 2.745627 37.647788
v -6.425198 1.617715 35.864888
v 11.012727 4.543274 37.472048
v -7.092863 0.003362 36.662063
v 11.167440 2.800967 38.280324
v 10.957175 4.598614 38.104584
v -6.480749 1.673054 36.497423
v 8.952502 -0.693505 38.227023
v 9.848193 -0.615142 38.227023
v 8.952496 -0.693506 37.041413
v 9.848193 -0.615142 37.041413
v 8.264026 7.891460 38.227166
v 9.159729 7.969824 38.227166
v 8.264026 7.891460 37.040454
v 9.159729 7.969824 37.040454
v -9.104964 -0.517515 38.431520
v -8.125665 -0.380693 38.536270
v -9.460274 7.690529 36.883932
v -10.439579 7.553706 36.779184
v -7.956380 -0.564986 37.249311
v -9.290833 7.506065 35.595776
v -8.935680 -0.701808 37.144562
v -10.270136 7.369242 35.491026
v 10.278284 5.582897 37.048205
v 10.333624 5.587740 37.683159
v 9.969914 6.948666 37.704481
v 9.914571 6.943824 37.069529
v -11.221872 4.678097 36.602872
v -11.222990 6.001985 36.121016
v -11.221872 4.896092 37.201809
v -11.222990 6.219980 36.719954
v 3.253925 3.522412 38.651125
v 4.388267 5.369880 37.935605
v 4.443607 5.374722 38.570556
v -6.242581 5.009730 36.942824
v 3.198585 3.517570 38.016173
v -3.069055 6.622190 36.770972
v -3.069055 6.404194 36.172033
v 0.988472 2.936001 38.741316
v -7.960467 5.056977 37.222217
vt 0.150371 0.845318
vt 0.131610 0.011926
vt 0.179989 0.967687
vt 0.151147 0.968969
vt 0.179533 0.886788
vt 0.333812 0.815608
vt 0.327219 0.022383
vt 0.099593 0.090720
vt 0.009937 0.938706
vt 0.073827 0.586647
vt 0.072486 0.976152
vt 0.190373 0.975340
vt 0.411178 0.601752
vt 0.301040 0.855157
vt 0.191713 0.585836
vt 0.341611 0.855591
vt 0.020083 0.586778
vt 0.072816 0.597002
vt 0.154232 0.597631
vt 0.071868 0.975060
vt 0.268833 0.602258
vt 0.267940 0.980318
vt 0.364933 0.615584
vt 0.091864 0.359311
vt 0.013465 0.599095
vt 0.102300 0.008882
vt 0.150692 0.888152
vt 0.287397 0.591008
vt 0.286069 0.980513
vt 0.018731 0.975658
vt 0.409848 0.991881
vt 0.153284 0.975689
vt 0.086440 0.856079
vt 0.041411 0.857139
vt 0.046834 0.360371
vt 0.214026 0.394743
vt 0.095313 0.109478
vt 0.214064 0.423615
vt 0.277862 0.423554
vt 0.012959 0.725088
vt 0.203611 0.977392
vt 0.100799 0.591523
vt 0.038242 0.785821
vt 0.164422 0.586539
vt 0.277844 0.394682
vt 0.127453 0.679109
vt 0.214229 0.594269
vt 0.395932 0.746774
vt 0.385626 0.672268
vt 0.024087 0.498412
vt 0.277844 0.671459
vt 0.284649 0.417911
vt 0.285661 0.777362
vt 0.036616 0.575869
vt 0.103054 0.620307
vt 0.166677 0.615322
vt 0.303531 0.357886
vt 0.344102 0.358319
vt 0.131034 0.010158
vt 0.128329 0.091932
vt 0.026509 0.016939
vt 0.004189 0.018671
vt 0.364039 0.993643
vt 0.012461 0.977155
vt 0.201280 0.010117
vt 0.202947 0.273338
vt 0.206419 0.607693
vt 0.036037 0.416013
vt 0.251110 0.220889
vt 0.074672 0.982942
vt 0.086053 0.018184
vt 0.201537 0.979642
vt 0.286514 0.010215
vt 0.207515 0.011039
vt 0.289148 0.938840
vt 0.179090 0.844669
vt 0.298409 0.020577
vt 0.160397 0.011254
vt 0.305101 0.817625
vt 0.090271 0.019077
vt 0.348482 0.019188
vt 0.412280 0.019127
vt 0.019184 0.277211
vt 0.407238 0.282844
vt 0.341096 0.354604
vt 0.082799 0.354401
vt 0.124111 0.111409
vt 0.172522 0.012877
vt 0.173168 0.276641
vt 0.116724 0.446825
vt 0.087841 0.444801
vt 0.356743 0.670245
vt 0.364559 0.776149
vt 0.329790 0.818534
vt 0.308723 0.922415
vt 0.098955 0.677805
vt 0.111250 0.873519
vt 0.041765 0.723697
vt 0.190259 0.978336
vt 0.007170 0.415529
vt 0.009373 0.785337
vt 0.266721 0.981121
vt 0.271588 0.754224
vt 0.190140 0.608522
vt 0.126454 0.833206
vt 0.126501 0.981124
vt 0.216221 0.567201
vt 0.228751 0.644658
vt 0.278719 0.229335
vt 0.210291 0.378624
vt 0.302919 0.411588
vt 0.301577 0.801092
vt 0.342226 0.801527
vt 0.343567 0.412022
vt 0.047971 0.419749
vt 0.093000 0.418688
vt 0.039749 0.797718
vt 0.084779 0.796658
vt 0.109231 0.599558
vt 0.108283 0.977615
vt 0.209493 0.599867
vt 0.208545 0.977925
vt 0.319941 0.613438
vt 0.319049 0.991498
vt 0.151065 0.585402
vt 0.149723 0.974906
vt 0.232314 0.980323
vt 0.233654 0.590819
vt 0.370449 0.602220
vt 0.369121 0.991725
vn 0.142153 -0.984916 0.098654
vn 0.142153 -0.984916 0.098654
vn 0.142153 -0.984916 0.098654
vn 0.142153 -0.984916 0.098654
vn -0.155694 0.982766 -0.099654
vn -0.155694 0.982766 -0.099654
vn -0.155694 0.982766 -0.099654
vn -0.155694 0.982766 -0.099654
vn 0.106828 -0.109395 -0.988241
vn 0.106828 -0.109395 -0.988241
vn 0.106828 -0.109395 -0.988241
vn 0.106828 -0.109395 -0.988241
vn -0.106828 0.109394 0.988241
vn -0.106828 0.109394 0.988241
vn -0.106828 0.109394 0.988241
vn -0.106828 0.109394 0.988241
vn 0.000001 -0.000017 1.000000
vn 0.000001 -0.000017 1.000000
vn 0.000001 -0.000017 1.000000
vn 0.000001 -0.000017 1.000000
vn 0.996800 0.079937 0.000000
vn 0.996800 0.079937 0.000000
vn 0.996800 0.079937 0.000000
vn 0.996800 0.079937 0.000000
vn 0.000010 -0.000111 -1.000000
vn 0.000010 -0.000111 -1.000000
vn 0.000010 -0.000111 -1.000000
vn 0.000010 -0.000111 -1.000000
vn -0.996800 -0.079939 0.000003
vn -0.996800 -0.079939 0.000003
vn -0.996800 -0.079939 0.000003
vn -0.996800 -0.079939 0.000003
vn -0.129250 0.178321 0.975447
vn -0.129250 0.178321 0.975447
vn -0.129250 0.178321 0.975447
vn -0.129250 0.178321 0.975447
vn 0.977822 0.182663 0.102464
vn 0.977822 0.182663 0.102464
vn 0.977822 0.182663 0.102464
vn 0.977822 0.182663 0.102464
vn 0.129268 -0.178463 -0.975418
vn 0.129268 -0.178463 -0.975418
vn 0.129268 -0.178463 -0.975418
vn 0.129268 -0.178463 -0.975418
vn -0.977822 -0.182664 -0.102464
vn -0.977822 -0.182664 -0.102464
vn -0.977822 -0.182664 -0.102464
vn -0.977822 -0.182664 -0.102464
vn -0.087157 0.996195 0.000000
vn -0.087157 0.996195 0.000000
vn -0.087157 0.996195 0.000000
vn -0.087157 0.996195 0.000000
vn -0.120264 0.980375 -0.156209
vn -0.120264 0.980375 -0.156209
vn -0.120264 0.980375 -0.156209
vn -0.120264 0.980375 -0.156209
vn 0.277882 -0.960467 -0.016895
vn 0.277882 -0.960467 -0.016895
vn 0.263994 -0.964397 -0.015654
vn 0.265232 -0.964056 -0.015765
vn -0.271512 0.962297 0.016327
vn -0.271512 0.962296 0.016327
vn -0.420299 0.906899 0.029717
vn -0.430681 0.901983 0.030659
vn 0.149665 -0.020245 0.988530
vn 0.149665 -0.020245 0.988529
vn 0.133907 -0.014519 0.990888
vn 0.060960 0.011864 0.998070
vn -0.179297 0.044134 -0.982805
vn -0.149666 0.020246 -0.988529
vn -0.149666 0.020246 -0.988529
vn -0.305203 0.147381 -0.940813
vn -0.349947 0.184816 -0.918357
vn -0.179297 0.044134 -0.982805
vn -0.305203 0.147381 -0.940813
vn 0.052401 -0.467734 -0.882314
vn 0.052401 -0.467735 -0.882314
vn 0.052401 -0.467734 -0.882314
vn 0.052401 -0.467734 -0.882314
vn 0.039984 -0.932205 0.359715
vn 0.039984 -0.932205 0.359715
vn 0.039984 -0.932205 0.359715
vn 0.039984 -0.932205 0.359715
vn 0.265232 -0.964056 -0.015765
vn 0.263994 -0.964397 -0.015654
vn 0.250027 -0.968132 -0.014409
vn -0.044169 0.938776 -0.341686
vn -0.044169 0.938776 -0.341686
vn -0.044169 0.938776 -0.341686
vn -0.044169 0.938776 -0.341686
vn -0.430681 0.901983 0.030659
vn -0.420299 0.906899 0.029717
vn -0.574650 0.817224 0.043853
vn 0.044261 0.146577 0.988209
vn -0.022744 0.341917 0.939455
vn -0.022744 0.341917 0.939455
vn -0.004135 0.288918 0.957345
vn 0.034218 0.021484 0.999183
vn 0.060960 0.011864 0.998070
vn 0.133907 -0.014519 0.990888
vn 0.444328 -0.841837 0.306404
vn 0.444328 -0.841837 0.306404
vn 0.444328 -0.841837 0.306404
vn 0.044261 0.146577 0.988209
vn -0.004135 0.288918 0.957345
vn 0.152148 -0.196207 0.968687
vn 0.989461 0.123175 0.076121
vn 0.989461 0.123175 0.076121
vn 0.989461 0.123175 0.076121
vn 0.989461 0.123175 0.076121
vn -0.936556 0.332366 -0.111331
vn -0.936556 0.332366 -0.111331
vn -0.936556 0.332366 -0.111331
vn -0.936556 0.332366 -0.111331
vn 0.087156 -0.996195 0.000000
vn 0.087156 -0.996195 0.000000
vn 0.087156 -0.996195 0.000000
vn 0.087156 -0.996195 0.000000
vn 0.120264 -0.980375 0.156209
vn 0.120264 -0.980375 0.156209
vn 0.120264 -0.980375 0.156209
vn 0.120264 -0.980375 0.156209
vn 0.962192 0.258493 -0.085834
vn 0.962192 0.258493 -0.085834
vn 0.962192 0.258493 -0.085834
vn 0.962192 0.258493 -0.085834
vn -1.000000 -0.000746 0.000271
vn -1.000000 -0.000746 0.000271
vn -1.000000 -0.000746 0.000271
vn -1.000000 -0.000746 0.000271
s off
g stuff_broken
usemtl lambert8SG
f 2/2/1 6/78/2 5/76/3 1/1/4
f 7/77/5 4/7/6 3/6/7 8/79/8
f 1/70/9 3/9/10 4/62/11 2/71/12
f 6/74/13 7/73/14 8/75/15 5/72/16
f 9/125/17 10/15/18 14/12/19 13/126/20
f 10/128/21 12/28/22 16/29/23 14/127/24
f 12/129/25 11/13/26 15/31/27 16/130/28
f 11/17/29 9/10/30 13/11/31 15/30/32
f 17/119/33 18/19/34 19/32/35 20/120/36
f 18/121/37 21/21/38 22/22/39 19/122/40
f 21/123/41 23/23/42 24/63/43 22/124/44
f 23/25/45 17/18/46 20/20/47 24/64/48
f 14/113/49 16/16/50 15/14/51 13/112/52
f 19/118/53 22/33/54 24/34/55 20/117/56
f 25/37/57 26/87/58 33/90/59 37/91/60
f 27/88/61 28/65/62 34/66/63 35/89/64
f 26/81/65 27/82/66 35/84/67 33/85/68
f 34/83/69 28/61/70 25/80/71 37/86/72
f 40/53/73 34/47/74 37/51/75
f 36/103/76 29/102/77 30/41/78 39/67/79
f 41/54/80 31/98/81 29/40/82 36/50/83
f 37/92/84 33/49/85 40/93/86
f 39/68/87 30/43/88 32/101/89 38/100/90
f 35/96/91 34/46/92 40/97/93
f 38/104/94 32/99/95 31/106/96 41/105/97
f 40/95/98 33/94/99 35/48/100
f 39/69/101 38/109/102 36/110/103
f 38/52/104 41/108/105 36/107/106
f 2/59/107 4/60/108 7/8/109 6/26/110
f 5/4/111 8/27/112 3/5/113 1/3/114
f 9/111/115 11/57/116 12/58/117 10/114/118
f 17/115/119 23/35/120 21/24/121 18/116/122
f 25/36/123 28/45/124 27/39/125 26/38/126
f 29/55/127 31/42/128 32/44/129 30/56/130
